<?xml version="1.0" encoding="utf-8"?><svg viewBox="0 0 225 54" xmlns="http://www.w3.org/2000/svg" xmlns:xlink="http://www.w3.org/1999/xlink"><style>:root>svg{display:none}:root>svg:target{display:block}</style><svg viewBox="0 0 25 24" id="css--Icons--Icons_24--Icon_windows" xmlns="http://www.w3.org/2000/svg"><path d="M11.563 11.688H22.5V2L11.562 3.573v8.115zm-.625 0V3.562L2.5 4.782v6.907h8.438zm0 .625H2.5v6.952l8.438 1.172v-8.125zm.625 0v8.154L22.5 22v-9.688H11.562z"/></svg><svg fill="none" viewBox="0 0 112 48" id="linux" xmlns="http://www.w3.org/2000/svg"><path d="M8.483.75c2.417-.832 5.136-.412 7.398.7 1.062.457 1.995 1.356 3.22 1.305 1.697-.007 3.483-.055 5.029.77.734.332 1.176 1.04 1.614 1.682-2.425-.28-4.922-.94-7.342-.264-1.11.286-2.162 1.128-2.302 2.325-.309 2.296.851 4.429 1.895 6.386 1.09 2.045 2.811 3.747 3.487 6.006 1.689 4.748 2.716 10.016 1.271 14.963-1.604 5.62-6.003 9.931-10.756 13.065 2.975-3.614 5.82-7.456 7.432-11.898.97-2.771 1.485-5.892.476-8.724-1.86-5.345-5.123-10.12-6.566-15.62-.449-1.63-.53-3.324-.65-5.002-1.382.285-2.798.835-3.651 2.021-.89 1.115-.994 2.59-1.229 3.942-1.6-1.884-3.022-4.232-2.742-6.809.079-2.1 1.384-4.156 3.416-4.848zM36.13 10.983c.56-.623 1.425-.785 2.188-1.022.074 6.034.024 12.072.027 18.106-.035 1.364.185 2.875 1.25 3.84.959 1.051 2.46 1.112 3.78 1.217l-.013 2.83c-1.934.08-3.958-.288-5.474-1.575-1.586-1.252-2.592-3.215-2.563-5.252-.019-5.205.01-10.41-.016-15.615-.021-.899.169-1.866.822-2.529z" fill="#055FE5"/><path d="M3.96 13.496c3.855 1.258 7.096 4.417 8.14 8.378 1.02 3.887.677 8.072-.589 11.863-1.078-4.565-3.313-9.141-7.274-11.86-1.593 3.612-1.258 7.707-.404 11.462 1.07 4.76 3.044 9.247 5.202 13.601-4.29-3.281-7.577-8.013-8.587-13.369-1.32-6.848.405-13.94 3.512-20.075zm45.262 4.468c.687-.582 1.649-.595 2.492-.77.042 5.211 0 10.424.024 15.637-.059.793.037 1.831-.719 2.33-.71.458-1.58.532-2.389.698-.037-5.245.008-10.49-.026-15.734.013-.748 0-1.625.618-2.161zm8.828.15c.597-.72 1.606-.74 2.454-.924.022.842.03 1.685.04 2.528 1.252-.985 2.59-1.97 4.188-2.28 1.757-.301 3.688-.232 5.24.737 1.746 1.05 2.692 3.12 2.66 5.118.024 3.181-.003 6.365.016 9.546-.032.753.058 1.67-.566 2.225-.692.631-1.693.59-2.557.745-.027-4.085.01-8.167-.01-12.252.044-1.329-.685-2.705-1.953-3.207-2.183-.848-4.875-.095-6.3 1.765-.493.631-.63 1.448-.623 2.232-.003 2.827.019 5.66.008 8.49-.042.673-.008 1.424-.407 2.008-.658.8-1.773.816-2.71.972-.04-5.144-.003-10.289-.024-15.433.044-.769-.016-1.66.544-2.27zm19.475-.121c.671-.65 1.662-.645 2.531-.756.027 3.876.008 7.755.003 11.634-.018 1.141.22 2.399 1.131 3.178.885.893 2.23 1.015 3.422.933 1.458-.082 2.85-.862 3.707-2.04.795-1.15.647-2.61.652-3.934.005-2.558-.045-5.113.019-7.668a1.835 1.835 0 01.924-1.635c.671-.344 1.443-.375 2.177-.476.022 5.023-.002 10.048.014 15.074-.045.893-.019 1.892-.576 2.645-.63.652-1.607.69-2.436.898-.021-.859-.03-1.717-.05-2.579-1.26 1.118-2.693 2.177-4.416 2.386-2.245.373-4.814-.23-6.285-2.066-1.078-1.316-1.477-3.057-1.456-4.727.013-2.912.005-5.823.003-8.735.023-.737.018-1.612.636-2.132zm18.482-.339c1.17-.335 2.777-.745 3.625.428 1.451 1.91 2.626 4.017 4.021 5.966a769.094 769.094 0 003.356-5.072c.431-.598.856-1.3 1.593-1.546.912-.304 1.9-.085 2.735.349-1.852 2.634-3.773 5.223-5.583 7.89-.362.366.058.787.243 1.13 1.025 1.432 2.085 2.84 3.099 4.28.986 1.416 2.148 2.727 2.904 4.291-1.162.299-2.721.703-3.593-.407-1.686-2.195-3.105-4.584-4.746-6.814-1.566 2.124-2.996 4.346-4.489 6.521-.446.695-1.241 1.165-2.079 1.1-.65-.072-1.26-.329-1.87-.543 1.392-2.037 2.892-4 4.317-6.016.71-1.03 1.58-1.955 2.185-3.057-.177-.721-.722-1.276-1.118-1.886-1.532-2.206-3.173-4.336-4.6-6.614z" fill="#055FE5"/></svg><svg fill="none" viewBox="0 0 75 48" id="logo" xmlns="http://www.w3.org/2000/svg"><path d="M71.03 43.778H30.881V12.667H71.03a1.55 1.55 0 011.544 1.555v28a1.55 1.55 0 01-1.544 1.556z" fill="#fff"/><path d="M72.573 11.111H32.427V3.333a1.55 1.55 0 00-1.545-1.555H1.544A1.55 1.55 0 000 3.333v40.445a1.55 1.55 0 001.544 1.555h71.029a1.55 1.55 0 001.545-1.555V12.667a1.55 1.55 0 00-1.544-1.556zM71.03 42.222H32.427v-28h38.602v28z" fill="#100F14"/><path d="M16.985 39.111H10.81c0-9.378 4.694-18.54 7.617-23.333H6.176V9.556H26.25v5.7l-.616.83c-.087.117-8.649 11.796-8.649 23.025z" fill="#fff"/><path d="M41.04 33.391h6.827V36H37.128v-1.893l6.757-11.043H37.06v-2.62h10.68v1.851l-6.7 11.096zm13.004-12.947h-3.088v15.519h3.088V20.444zm12.46 1.435c-.947-.95-2.236-1.435-3.836-1.435h-5.536V35.97h3.282v-5.456h2.188c1.666 0 2.988-.452 3.919-1.325.946-.888 1.42-2.087 1.42-3.6 0-1.527-.474-2.759-1.437-3.71zm-2.383 5.44c-.343.39-.832.576-1.453.576h-2.253v-4.831H62.7c.589 0 1.061.233 1.404.686.36.468.522 1.09.522 1.854 0 .748-.162 1.324-.505 1.714z" fill="#100F14"/></svg><svg fill="none" viewBox="0 0 144 38" id="macos" xmlns="http://www.w3.org/2000/svg"><g opacity=".2" filter="url(#dfilter0_f_2012_2536)"><path d="M3 34.485h5.405v-13.93c0-2.746 1.823-4.742 4.429-4.742 2.517 0 4.08 1.566 4.08 4.099v14.573h5.253V20.427c0-2.726 1.78-4.614 4.385-4.614 2.648 0 4.124 1.587 4.124 4.377v14.295h5.405V18.882c0-4.55-2.974-7.576-7.51-7.576-3.322 0-6.056 1.76-7.164 4.57h-.13c-.847-2.918-3.17-4.57-6.425-4.57-3.126 0-5.557 1.739-6.556 4.379h-.108v-3.95H3v22.75zm44.912-3.67c-2.344 0-3.907-1.18-3.907-3.048 0-1.802 1.497-2.962 4.103-3.133l5.318-.323v1.739c0 2.747-2.453 4.764-5.514 4.764zm-1.628 4.034c2.952 0 5.84-1.523 7.164-3.991h.108v3.627h5.21V18.817c0-4.57-3.712-7.554-9.42-7.554-5.862 0-9.53 3.047-9.769 7.297h5.014c.347-1.889 1.976-3.112 4.537-3.112 2.67 0 4.298 1.373 4.298 3.756v1.63l-6.078.344c-5.6.344-8.748 2.769-8.748 6.804 0 4.098 3.234 6.867 7.684 6.867zm36.208-15.001c-.369-4.786-4.124-8.585-10.203-8.585-6.684 0-11.026 4.571-11.026 11.846 0 7.383 4.341 11.826 11.07 11.826 5.774 0 9.747-3.349 10.18-8.435h-5.1c-.5 2.576-2.28 4.12-5.015 4.12-3.43 0-5.643-2.747-5.643-7.511 0-4.679 2.192-7.512 5.6-7.512 2.887 0 4.601 1.824 5.036 4.25h5.101zM99.185 3c-9.138 0-14.869 6.16-14.869 16.01 0 9.852 5.73 15.99 14.87 15.99 9.116 0 14.847-6.138 14.847-15.99 0-9.85-5.73-16.01-14.848-16.01zm0 4.722c5.579 0 9.139 4.378 9.139 11.289 0 6.889-3.561 11.267-9.138 11.267-5.6 0-9.139-4.378-9.139-11.267 0-6.91 3.538-11.29 9.139-11.29h-.001zm17.128 18.05C116.552 31.48 121.284 35 128.49 35c7.576 0 12.352-3.692 12.352-9.572 0-4.614-2.692-7.211-9.053-8.649l-3.603-.815c-3.842-.902-5.426-2.104-5.426-4.165 0-2.575 2.388-4.292 5.926-4.292 3.581 0 6.034 1.739 6.295 4.636h5.34C140.19 6.693 135.632 3 128.729 3c-6.816 0-11.656 3.712-11.656 9.206 0 4.421 2.735 7.168 8.508 8.478l4.06.945c3.951.922 5.557 2.21 5.557 4.442 0 2.576-2.627 4.421-6.404 4.421-3.82 0-6.707-1.867-7.054-4.722h-5.427z" fill="#055FE5"/></g><defs><filter id="dfilter0_f_2012_2536" x="0" y="0" width="145" height="38" filterUnits="userSpaceOnUse" color-interpolation-filters="sRGB"><feFlood flood-opacity="0" result="BackgroundImageFix"/><feBlend in="SourceGraphic" in2="BackgroundImageFix" result="shape"/><feGaussianBlur stdDeviation="1.5" result="effect1_foregroundBlur_2012_2536"/></filter></defs></svg><svg fill="none" viewBox="0 0 225 54" id="windows" xmlns="http://www.w3.org/2000/svg"><g opacity=".2" clip-path="url(#eclip0_2012_2554)" filter="url(#efilter0_f_2012_2554)" fill="#055FE5"><path d="M24.9 26.25h26.431V3L24.9 6.774V26.25zm-1.51 0V6.75L3 9.674V26.25h20.39zm0 1.5H3v16.685l20.39 2.815v-19.5zm1.51 0v19.571L51.331 51V27.75H24.9zm77.783-14.943L94.63 41.25h-3.913l-5.87-20.802c-.226-.792-.368-1.726-.425-2.887h-.085c-.113.99-.284 1.925-.539 2.83L77.9 41.221h-3.884l-8.337-28.443h3.658L75.405 34.6c.255.962.425 1.925.51 2.859h.086c.056-.793.255-1.755.595-2.859l6.323-21.82h3.233l6.011 21.962c.227.82.397 1.698.482 2.632h.085c.057-.68.255-1.585.539-2.717l5.813-21.906h3.601v.057zm6.041 1.294c0 .597-.176 1.108-.554 1.534-.377.397-.83.596-1.334.596a1.72 1.72 0 01-1.334-.596c-.352-.398-.554-.909-.554-1.534 0-.568.177-1.05.529-1.476.352-.426.805-.625 1.359-.625.529 0 .982.199 1.36.625.327.397.528.88.528 1.476zm-.503 27.149h-2.895V20.86h2.895v20.39zm22.403.75h-3.206V30.33c0-4.337-1.561-6.505-4.655-6.505-1.589 0-2.899.599-3.958 1.826-1.059 1.227-1.589 2.768-1.589 4.68V42h-3.206V21.514h3.206v3.395h.084c1.505-2.596 3.679-3.909 6.55-3.909 2.203 0 3.875.742 5.018 2.197 1.143 1.455 1.728 3.538 1.728 6.249V42h.028zm24.166-.484h-3.406v-3.47h-.089C149.726 40.691 147.297 42 143.98 42c-2.695 0-4.827-.939-6.426-2.788-1.599-1.849-2.399-4.324-2.399-7.424 0-3.385.889-6.087 2.636-8.136 1.777-2.048 4.116-3.072 7.078-3.072 2.902 0 5.034 1.11 6.367 3.3h.089V11.25h3.405v30.266h.06zm-3.376-9.216v-3.015c0-1.679-.593-3.1-1.748-4.21-1.155-1.11-2.576-1.679-4.264-1.679-2.044 0-3.672.74-4.887 2.19-1.214 1.452-1.806 3.471-1.806 6.06 0 2.332.563 4.181 1.688 5.547 1.125 1.365 2.665 2.048 4.59 2.048 1.866 0 3.406-.654 4.62-1.963 1.185-1.309 1.807-2.958 1.807-4.978zm26.786-.884c0 3.184-.924 5.753-2.801 7.68-1.878 1.927-4.361 2.904-7.509 2.904-3.062 0-5.517-.95-7.336-2.82-1.819-1.9-2.744-4.357-2.744-7.457 0-3.323.925-5.92 2.802-7.847 1.877-1.927 4.447-2.876 7.74-2.876 3.09 0 5.487.922 7.22 2.793 1.762 1.843 2.628 4.384 2.628 7.623zm-3.379.112c0-2.513-.578-4.44-1.733-5.78-1.155-1.341-2.801-2.011-4.938-2.011-2.138 0-3.813.698-5.055 2.066-1.241 1.369-1.848 3.323-1.848 5.809 0 2.401.636 4.272 1.877 5.613 1.242 1.34 2.917 2.038 5.054 2.038 2.167 0 3.813-.67 4.968-1.982 1.097-1.369 1.675-3.268 1.675-5.753zm32.831-10.5L201.5 41.25h-3.404l-4.235-14.476a9.64 9.64 0 01-.314-1.86h-.086c-.029.451-.172 1.071-.429 1.803l-4.578 14.505h-3.29L178.955 21h3.462l4.234 15.209c.144.535.229 1.126.287 1.802h.171c.029-.507.143-1.126.372-1.859L192.202 21h3.004l4.263 15.237c.143.507.229 1.126.286 1.802h.172c.028-.62.143-1.239.315-1.802L204.419 21h3.233v.028zM222 36.164c0 1.73-.699 3.155-2.096 4.216-1.397 1.09-3.26 1.62-5.56 1.62-1.98 0-3.697-.391-5.182-1.2v-3.436c1.659 1.285 3.464 1.927 5.415 1.927 2.649 0 3.988-.921 3.988-2.792 0-.754-.262-1.369-.786-1.843-.524-.475-1.689-1.117-3.523-1.927-1.863-.754-3.143-1.564-3.929-2.43-.757-.866-1.136-2.01-1.136-3.463 0-1.647.699-3.043 2.067-4.16 1.397-1.117 3.144-1.676 5.269-1.676 1.659 0 3.144.307 4.454.95v3.239c-1.368-.95-2.94-1.424-4.745-1.424-1.106 0-1.98.251-2.649.782-.67.53-1.019 1.2-1.019 2.01 0 .894.262 1.564.786 2.039.524.474 1.572 1.033 3.202 1.703 1.98.81 3.377 1.648 4.192 2.541.844.866 1.252 1.983 1.252 3.324z"/></g><defs><clipPath id="eclip0_2012_2554"><path fill="#fff" transform="translate(3 3)" d="M0 0h219v48H0z"/></clipPath><filter id="efilter0_f_2012_2554" x="0" y="0" width="225" height="54" filterUnits="userSpaceOnUse" color-interpolation-filters="sRGB"><feFlood flood-opacity="0" result="BackgroundImageFix"/><feBlend in="SourceGraphic" in2="BackgroundImageFix" result="shape"/><feGaussianBlur stdDeviation="1.5" result="effect1_foregroundBlur_2012_2554"/></filter></defs></svg></svg>