<svg width="450" height="258" fill="none" xmlns="http://www.w3.org/2000/svg"><path fill-rule="evenodd" clip-rule="evenodd" d="M52.686.59h343.845c6.4 0 11.592 5.06 11.592 11.298v223.52c0 6.238-5.185 11.298-11.592 11.298H52.686c-6.4 0-11.592-5.06-11.592-11.298V11.888C41.094 5.651 46.28.59 52.686.59z" fill="#000"/><path fill-rule="evenodd" clip-rule="evenodd" d="M52.686.59h343.845c6.4 0 11.592 5.06 11.592 11.298v223.52c0 6.238-5.185 11.298-11.592 11.298H52.686c-6.4 0-11.592-5.06-11.592-11.298V11.888C41.094 5.651 46.28.59 52.686.59z" fill="#E9E9E9"/><path fill-rule="evenodd" clip-rule="evenodd" d="M52.686.59h343.845c6.4 0 11.592 5.06 11.592 11.298v223.52c0 6.238-5.185 11.298-11.592 11.298H52.686c-6.4 0-11.592-5.06-11.592-11.298V11.888C41.094 5.651 46.28.59 52.686.59z" fill="url(#paint0_linear_4035_4366)" fill-opacity=".4"/><path d="M390.974 11.739H58.246a4.86 4.86 0 00-4.86 4.86v212.674a4.86 4.86 0 004.86 4.86h332.728a4.861 4.861 0 004.862-4.86V16.599a4.861 4.861 0 00-4.862-4.86z" fill="url(#paint1_linear_4035_4366)"/><path fill-rule="evenodd" clip-rule="evenodd" d="M14.613 240.387H435.01c7.827 0 14.17.365 14.17.809v7.657c0 .443-6.343 9.115-14.17 9.115H14.613c-7.826 0-14.17-8.672-14.17-9.115v-7.657c0-.444 6.344-.809 14.17-.809z" fill="#000"/><path fill-rule="evenodd" clip-rule="evenodd" d="M14.613 240.387H435.01c7.827 0 14.17.365 14.17.809v7.657c0 .443-6.343 9.115-14.17 9.115H14.613c-7.826 0-14.17-8.672-14.17-9.115v-7.657c0-.444 6.344-.809 14.17-.809z" fill="#E9E9E9"/><path fill-rule="evenodd" clip-rule="evenodd" d="M14.613 240.387H435.01c7.827 0 14.17.365 14.17.809v7.657c0 .443-6.343 9.115-14.17 9.115H14.613c-7.826 0-14.17-8.672-14.17-9.115v-7.657c0-.444 6.344-.809 14.17-.809z" fill="url(#paint2_linear_4035_4366)" fill-opacity=".4"/><path d="M360.63 45.112H88.59a8.364 8.364 0 00-8.365 8.365v140.687a8.363 8.363 0 008.364 8.363H360.63a8.363 8.363 0 008.363-8.363V53.477a8.364 8.364 0 00-8.363-8.365z" fill="#fff"/><path d="M185.129 87.815h17.147c2.009 0 2.935.794 2.935 2.903v22.051c0 2.114-.851 3.01-3.01 3.01h-33.894c-1.846 0-2.265-.896-2.265-2.554V86.476c0-1.946.476-2.833 2.647-2.833h14.214c2.501 0 2.233 2.288 2.233 4.172h-.007z" fill="#FFD35A" stroke="#F3D257" stroke-width=".715" stroke-miterlimit="10"/><path d="M249.884 87.815h17.148c2.008 0 2.932.794 2.932 2.903v22.051c0 2.114-.85 3.01-3.008 3.01h-33.894c-1.845 0-2.265-.896-2.265-2.554V86.476c0-1.946.477-2.833 2.646-2.833h14.213c2.503 0 2.235 2.288 2.235 4.172h-.007z" fill="#FFE482" stroke="#F3D257" stroke-width=".715" stroke-miterlimit="10"/><path d="M245.616 100.757a3.283 3.283 0 100-6.568 3.285 3.285 0 000 6.568zm9.899 0a3.285 3.285 0 100-6.57 3.285 3.285 0 000 6.57zm-2.707 2.334c-.107-.074-.063-.237.069-.237 2.664-.038 6.149-.325 7.501.576 1.275.85 1.752 1.914 1.752 2.739 0 .826-.289 1.946-2.134 1.946h-5.418c-.825 0-1.258-1.244-1.176-2.202.081-.989.457-2.084-.588-2.827l-.006.005zm-9.549-.312h5.067c2.233 0 3.154 1.476 3.316 2.815.131 1.107-.032 2.515-1.884 2.515h-8.445c-2.07 0-2.252-2.103-1.883-3.185.37-1.082 1.433-2.145 3.822-2.145h.007z" fill="#CCA200"/><path d="M314.97 140.508h17.146c2.008 0 2.934.794 2.934 2.902v22.052c0 2.114-.85 3.01-3.008 3.01h-33.894c-1.846 0-2.265-.896-2.265-2.554v-26.749c0-1.946.475-2.833 2.646-2.833h14.213c2.503 0 2.233 2.288 2.233 4.172h-.005z" fill="#FFE482" stroke="#F3D257" stroke-width=".715" stroke-miterlimit="10"/><path d="M185.136 140.508h17.147c2.008 0 2.935.794 2.935 2.902v22.052c0 2.114-.851 3.01-3.01 3.01h-33.895c-1.845 0-2.264-.896-2.264-2.554v-26.749c0-1.946.476-2.833 2.647-2.833h14.213c2.502 0 2.233 2.288 2.233 4.172h-.006z" fill="#FFD35A" stroke="#F3D257" stroke-width=".715" stroke-miterlimit="10"/><path d="M180.871 153.45a3.285 3.285 0 100-6.57 3.285 3.285 0 000 6.57zm9.905 0a3.284 3.284 0 10.001-6.569 3.284 3.284 0 00-.001 6.569zm-2.713 2.333c-.107-.075-.062-.238.069-.238 2.664-.037 6.149-.325 7.501.576 1.275.852 1.751 1.914 1.751 2.741 0 .825-.288 1.944-2.134 1.944h-5.417c-.825 0-1.256-1.244-1.176-2.201.082-.988.456-2.083-.587-2.828l-.007.006zm-9.549-.305h5.066c2.235 0 3.154 1.476 3.317 2.815.131 1.107-.032 2.515-1.884 2.515h-8.445c-2.071 0-2.252-2.102-1.883-3.184.383-1.114 1.433-2.146 3.822-2.146h.007z" fill="#CCA200"/><path d="M314.98 87.815h17.146c2.008 0 2.934.794 2.934 2.903v22.051c0 2.114-.85 3.01-3.008 3.01h-33.894c-1.845 0-2.265-.896-2.265-2.554V86.476c0-1.946.475-2.833 2.646-2.833h14.213c2.503 0 2.233 2.288 2.233 4.172h-.005z" fill="#FFE482" stroke="#F3D257" stroke-width=".715" stroke-miterlimit="10"/><path d="M310.715 100.757a3.283 3.283 0 100-6.568 3.284 3.284 0 100 6.568zm9.899 0a3.285 3.285 0 100-6.57 3.285 3.285 0 000 6.57zm-2.708 2.334c-.106-.074-.062-.237.069-.237 2.666-.038 6.15-.325 7.501.576 1.277.85 1.751 1.914 1.751 2.739 0 .826-.287 1.946-2.132 1.946h-5.417c-.827 0-1.259-1.244-1.176-2.202.08-.957.456-2.084-.589-2.827l-.007.005zm-9.548-.312h5.067c2.233 0 3.152 1.476 3.315 2.815.133 1.107-.03 2.515-1.882 2.515h-8.446c-2.07 0-2.251-2.103-1.882-3.185.381-1.114 1.433-2.145 3.822-2.145h.006z" fill="#CCA200"/><path d="M249.881 140.508h17.147c2.009 0 2.933.794 2.933 2.902v22.052c0 2.114-.851 3.01-3.008 3.01h-33.894c-1.846 0-2.265-.896-2.265-2.554v-26.749c0-1.946.476-2.833 2.646-2.833h14.213c2.503 0 2.235 2.288 2.235 4.172h-.007z" fill="#FFD35A" stroke="#F3D257" stroke-width=".715" stroke-miterlimit="10"/><g clip-path="url(#clip0_4035_4366)"><path d="M66.632 124.769h77.608c2.708 0 4.902 2.186 4.902 4.883v27.67h-82.51v-32.553z" fill="#C0BDBD"/><path d="M66.632 124.769H15.165c-2.707 0-4.901 2.186-4.901 4.883v27.67h56.368v-32.553z" fill="#B5B5B5"/><path d="M66.632 222.427H15.165c-2.707 0-4.901-2.185-4.901-4.882v-27.67h56.368v32.552z" fill="#DFDCDC"/><path d="M66.632 222.427h77.608c2.708 0 4.902-2.185 4.902-4.882v-27.67h-82.51v32.552z" fill="#EBEBEB"/><path d="M149.142 157.322h-82.51v32.553h82.51v-32.553z" fill="#DEDEDE"/><path d="M66.632 157.322H10.264v32.553h56.368v-32.553z" fill="#C2C2C2"/><path d="M53.561 143.487H2.911a2.446 2.446 0 00-2.45 2.442v55.339a2.446 2.446 0 002.45 2.442h50.65a2.446 2.446 0 002.45-2.442v-55.339a2.446 2.446 0 00-2.45-2.442z" fill="#212121"/><path d="M19.24 193.13l13.796-30.041H14.917v-6.509H41.28v4.856L27.382 193.13h-8.143z" fill="#fff"/><path d="M98.148 185.806H79.919v-3.355l11.745-16.773H80.238v-4.273h17.59v3.338l-11.727 16.79h12.047v4.273zm6.305 0v-24.401h5.193v24.401h-5.193zm18.954-12.918h1.708c1.597 0 2.793-.312 3.586-.935.793-.634 1.189-1.552 1.189-2.754 0-1.212-.335-2.108-1.005-2.687-.659-.578-1.697-.867-3.116-.867h-2.362v7.243zm11.727-3.872c0 2.626-.827 4.634-2.479 6.025-1.642 1.391-3.982 2.086-7.02 2.086h-2.228v8.679h-5.194v-24.401h7.824c2.971 0 5.227.64 6.769 1.92 1.552 1.268 2.328 3.165 2.328 5.691z" fill="#353535"/></g><defs><linearGradient id="paint0_linear_4035_4366" x1="224.625" y1="-21.449" x2="224.625" y2="224.698" gradientUnits="userSpaceOnUse"><stop stop-color="#fff" stop-opacity=".5"/><stop offset="1" stop-color="#000C41" stop-opacity=".5"/></linearGradient><linearGradient id="paint1_linear_4035_4366" x1="121.474" y1="-20.667" x2="302.129" y2="230.88" gradientUnits="userSpaceOnUse"><stop stop-color="#09CCDF"/><stop offset="1" stop-color="#004BDF"/></linearGradient><linearGradient id="paint2_linear_4035_4366" x1="224.811" y1="240.387" x2="224.811" y2="257.968" gradientUnits="userSpaceOnUse"><stop stop-color="#fff" stop-opacity=".5"/><stop offset="1" stop-color="#000C41" stop-opacity=".5"/></linearGradient><clipPath id="clip0_4035_4366"><path fill="#fff" transform="translate(.46 124.769)" d="M0 0h148.682v97.658H0z"/></clipPath></defs></svg>