<svg width="213" height="187" fill="none" xmlns="http://www.w3.org/2000/svg"><path d="M208.433 79.752L61.256 1.197a8.534 8.534 0 00-11.548 3.51L1.361 95.289a8.533 8.533 0 003.511 11.547L152.05 185.39a8.534 8.534 0 0011.547-3.509l48.348-90.582a8.535 8.535 0 00-3.511-11.547z" fill="url(#paint0_linear_4030_2784)"/><path d="M197.254 89.133L59.684 15.706 16.052 97.454l137.571 73.428 43.631-81.749z" fill="#00BAB9"/><path fill-rule="evenodd" clip-rule="evenodd" d="M133.618 116.318a4.378 4.378 0 00-3.78-1.842l-30.022 1.453a4.38 4.38 0 01-3.965-2.125l-29.458-49.45a4.367 4.367 0 00-4.198-2.114l-29.02 2.981L15.91 97.574l137.563 73.432 8.072-15.126-27.91-39.57-.017.008z" fill="#005A66"/><path d="M107.344 99.543c6.278 1.836 12.854-1.765 14.69-8.043 1.837-6.276-1.765-12.854-8.042-14.69-6.277-1.835-12.854 1.765-14.69 8.043-1.837 6.276 1.766 12.855 8.042 14.69z" fill="#A3DADF"/><defs><linearGradient id="paint0_linear_4030_2784" x1="179.511" y1="39.647" x2="34.259" y2="147.792" gradientUnits="userSpaceOnUse"><stop stop-color="#D8D8D7"/><stop offset="1" stop-color="#E8E7E7"/></linearGradient></defs></svg>