<svg width="221" height="209" fill="none" xmlns="http://www.w3.org/2000/svg"><path fill-rule="evenodd" clip-rule="evenodd" d="M88.922 94.686L30.826 51.17 2.599 79.179a8.548 8.548 0 00-.046 12.082l56.761 57.206 31.324-41.813c2.834-3.771 2.064-9.12-1.72-11.957l.004-.011z" fill="url(#paint0_linear_4030_3453)"/><path d="M218.04 121.837L100.53 3.417a8.536 8.536 0 00-12.07-.046L15.58 75.694a8.535 8.535 0 00-.047 12.07l117.51 118.419a8.535 8.535 0 0012.069.047l72.882-72.324a8.533 8.533 0 00.047-12.069z" fill="url(#paint1_linear_4030_3453)"/><path d="M202.656 127.166L95.083 18.76 30.924 82.425 138.5 190.83l64.157-63.664z" fill="#5EC8DE"/><path fill-rule="evenodd" clip-rule="evenodd" d="M138.509 190.831l57.241-56.792-31.939-23.677-62.502-.616 6.031 6.619-22.216 20.66 53.385 53.806z" fill="#0E84A0"/><path fill-rule="evenodd" clip-rule="evenodd" d="M97.434 50.772c3.052-9.38-6.163-17.854-13.386-21.04l-53.09 52.683 22.117 22.278c1.213-.436 2.493-1.282 3.786-2.768 5.748-6.634 3.743-15.187 3.743-15.187 3.61 6.595 17.074 2.151 22.07-3.24 9.61-10.347.455-21.687.455-21.687s10.922-.615 14.309-11.05l-.004.011z" fill="#A8DDE6"/><defs><linearGradient id="paint0_linear_4030_3453" x1="3.268" y1="76.976" x2="83.619" y2="119.863" gradientUnits="userSpaceOnUse"><stop stop-color="#8E8F90" stop-opacity="0"/><stop offset="1" stop-color="#8E8F90" stop-opacity=".8"/></linearGradient><linearGradient id="paint1_linear_4030_3453" x1="173.85" y1="62.343" x2="59.72" y2="147.286" gradientUnits="userSpaceOnUse"><stop stop-color="#D8D8D7"/><stop offset="1" stop-color="#E8E7E7"/></linearGradient></defs></svg>