<svg width="226" height="201" fill="none" xmlns="http://www.w3.org/2000/svg"><path fill-rule="evenodd" clip-rule="evenodd" d="M115.268 130.879L14.605 77.141 2.638 93.115c-2.833 3.771-2.063 9.119 1.72 11.956l95.986 71.894 18.436-34.518a8.535 8.535 0 00-3.515-11.554l.003-.014z" fill="url(#paint0_linear_4030_2951)"/><path d="M221.962 102.652L88.43 2.645A8.535 8.535 0 0076.484 4.36l-61.55 82.184A8.53 8.53 0 0016.65 98.49l133.53 100.007c3.771 2.825 9.12 2.056 11.945-1.715l61.551-82.185a8.533 8.533 0 00-1.715-11.945z" fill="url(#paint1_linear_4030_2951)"/><path d="M207.373 110.254L85.236 18.781 31.233 90.888l122.137 91.473 54.003-72.107z" fill="url(#paint2_linear_4030_2951)"/><path fill-rule="evenodd" clip-rule="evenodd" d="M146.928 118.694c-3.324-.973-6.704-.285-9.362 1.513-.775-4.41-2.045-9.744-2.986-11.71-.73-1.54-3.845-4.731-6.83-7.55 5.793.824 11.464-2.654 13.155-8.437 1.854-6.336-1.78-12.992-8.13-14.849-6.35-1.855-12.992 1.78-14.849 8.13-.799 2.73-.532 5.491.483 7.934-3.793-2.022-8.397-3.798-11.029-3.696-1.22.045-3.307.12-5.52.21-3.08-1.25-6.125-2.488-8.548-3.465 3.797-.875 7.04-3.667 8.214-7.683 1.727-5.906-1.656-12.085-7.561-13.811-5.906-1.727-12.084 1.656-13.81 7.561-1.006 3.434-.236 6.946 1.714 9.635-6.109-.715-10.68.98-12.486 2.933-1.899 2.046-7.72 10.858-7.494 13.66.176 2.197-2.615 9.079-3.847 11.963l19.153 14.346c2.943-3.003 9.465-9.851 11.927-14.188 3.217-5.684 7.469-9.122 10.133-8.463.55.135 1.317.264 2.152.388-2.038 2.475-4.677 6.41-6.343 9.034-2.127 3.376-12.14 13.402-14.504 15.754l25.598 19.181c2.171-2.383 6.76-9.677 10.332-14.923 1.213 1.857 1.909 4.34.657 7.796-1.629 4.513-3.937 9.658-4.872 11.705l20.663 15.47c2.285-2.724 6.719-8.348 7.871-12.289 1.282-4.385 1.502-10.41 1.21-14.505 5.467.887 10.87-2.361 12.463-7.808 1.727-5.906-1.657-12.084-7.563-13.813l.009-.023z" fill="#5EC8DE"/><defs><linearGradient id="paint0_linear_4030_2951" x1=".788" y1="96.282" x2="111.742" y2="155.503" gradientUnits="userSpaceOnUse"><stop stop-color="#8E8F90" stop-opacity="0"/><stop offset="1" stop-color="#8E8F90" stop-opacity=".8"/></linearGradient><linearGradient id="paint1_linear_4030_2951" x1="184.58" y1="51.831" x2="53.889" y2="149.102" gradientUnits="userSpaceOnUse"><stop stop-color="#D8D8D7"/><stop offset="1" stop-color="#E8E7E7"/></linearGradient><linearGradient id="paint2_linear_4030_2951" x1="222.566" y1="29.416" x2="119.318" y2="101.899" gradientUnits="userSpaceOnUse"><stop stop-color="#476BB2"/><stop offset="1" stop-color="#23BED0"/></linearGradient></defs></svg>