<svg width="450" height="258" viewBox="0 0 450 258" fill="none" xmlns="http://www.w3.org/2000/svg">
<path fill-rule="evenodd" clip-rule="evenodd" d="M52.6864 0.589111H396.531C402.931 0.589111 408.123 5.65072 408.123 11.8884V235.408C408.123 241.646 402.938 246.706 396.531 246.706H52.6864C46.2867 246.706 41.0943 241.646 41.0943 235.408V11.8884C41.0943 5.65072 46.2804 0.589111 52.6864 0.589111Z" fill="black"/>
<path fill-rule="evenodd" clip-rule="evenodd" d="M52.6864 0.589111H396.531C402.931 0.589111 408.123 5.65072 408.123 11.8884V235.408C408.123 241.646 402.938 246.706 396.531 246.706H52.6864C46.2867 246.706 41.0943 241.646 41.0943 235.408V11.8884C41.0943 5.65072 46.2804 0.589111 52.6864 0.589111Z" fill="#E9E9E9"/>
<path fill-rule="evenodd" clip-rule="evenodd" d="M52.6864 0.589111H396.531C402.931 0.589111 408.123 5.65072 408.123 11.8884V235.408C408.123 241.646 402.938 246.706 396.531 246.706H52.6864C46.2867 246.706 41.0943 241.646 41.0943 235.408V11.8884C41.0943 5.65072 46.2804 0.589111 52.6864 0.589111Z" fill="url(#paint0_linear_4035_4366)" fill-opacity="0.4"/>
<path d="M390.974 11.739H58.2462C55.5617 11.739 53.3855 13.915 53.3855 16.5993V229.273C53.3855 231.957 55.5617 234.133 58.2462 234.133H390.974C393.659 234.133 395.836 231.957 395.836 229.273V16.5993C395.836 13.915 393.659 11.739 390.974 11.739Z" fill="url(#paint1_linear_4035_4366)"/>
<path fill-rule="evenodd" clip-rule="evenodd" d="M14.6128 240.387H435.01C442.837 240.387 449.18 240.752 449.18 241.196V248.853C449.18 249.296 442.837 257.968 435.01 257.968H14.6128C6.78667 257.968 0.443268 249.296 0.443268 248.853V241.196C0.443268 240.752 6.78667 240.387 14.6128 240.387Z" fill="black"/>
<path fill-rule="evenodd" clip-rule="evenodd" d="M14.6128 240.387H435.01C442.837 240.387 449.18 240.752 449.18 241.196V248.853C449.18 249.296 442.837 257.968 435.01 257.968H14.6128C6.78667 257.968 0.443268 249.296 0.443268 248.853V241.196C0.443268 240.752 6.78667 240.387 14.6128 240.387Z" fill="#E9E9E9"/>
<path fill-rule="evenodd" clip-rule="evenodd" d="M14.6128 240.387H435.01C442.837 240.387 449.18 240.752 449.18 241.196V248.853C449.18 249.296 442.837 257.968 435.01 257.968H14.6128C6.78667 257.968 0.443268 249.296 0.443268 248.853V241.196C0.443268 240.752 6.78667 240.387 14.6128 240.387Z" fill="url(#paint2_linear_4035_4366)" fill-opacity="0.4"/>
<path d="M360.63 45.1116H88.5892C83.9699 45.1116 80.2251 48.8562 80.2251 53.4766V194.164C80.2251 198.783 83.9699 202.527 88.5892 202.527H360.63C365.249 202.527 368.993 198.783 368.993 194.164V53.4766C368.993 48.8562 365.249 45.1116 360.63 45.1116Z" fill="white"/>
<path d="M185.129 87.8152H202.276C204.285 87.8152 205.211 88.6088 205.211 90.7176V112.769C205.211 114.883 204.36 115.779 202.201 115.779H168.307C166.461 115.779 166.042 114.883 166.042 113.225V86.4764C166.042 84.5303 166.518 83.6428 168.689 83.6428H182.903C185.404 83.6428 185.136 85.9312 185.136 87.8152H185.129Z" fill="#FFD35A" stroke="#F3D257" stroke-width="0.714801" stroke-miterlimit="10"/>
<path d="M249.884 87.8152H267.032C269.04 87.8152 269.964 88.6088 269.964 90.7176V112.769C269.964 114.883 269.114 115.779 266.956 115.779H233.062C231.217 115.779 230.797 114.883 230.797 113.225V86.4764C230.797 84.5303 231.274 83.6428 233.443 83.6428H247.656C250.159 83.6428 249.891 85.9312 249.891 87.8152H249.884Z" fill="#FFE482" stroke="#F3D257" stroke-width="0.714801" stroke-miterlimit="10"/>
<path d="M245.616 100.757C247.43 100.757 248.9 99.2874 248.9 97.4738C248.9 95.6586 247.43 94.189 245.616 94.189C243.803 94.189 242.331 95.6586 242.331 97.4738C242.331 99.2874 243.803 100.757 245.616 100.757Z" fill="#CCA200"/>
<path d="M255.515 100.757C257.328 100.757 258.8 99.2874 258.8 97.4738C258.8 95.6586 257.328 94.189 255.515 94.189C253.701 94.189 252.231 95.6586 252.231 97.4738C252.231 99.2874 253.701 100.757 255.515 100.757Z" fill="#CCA200"/>
<path d="M252.808 103.091C252.701 103.017 252.745 102.854 252.877 102.854C255.541 102.816 259.026 102.529 260.378 103.43C261.653 104.28 262.13 105.344 262.13 106.169C262.13 106.995 261.841 108.115 259.996 108.115H254.578C253.753 108.115 253.32 106.871 253.402 105.913C253.483 104.924 253.859 103.829 252.814 103.086L252.808 103.091Z" fill="#CCA200"/>
<path d="M243.259 102.779H248.326C250.559 102.779 251.48 104.255 251.642 105.594C251.773 106.701 251.61 108.109 249.758 108.109H241.313C239.243 108.109 239.061 106.006 239.43 104.924C239.8 103.842 240.863 102.779 243.252 102.779H243.259Z" fill="#CCA200"/>
<path d="M314.97 140.508H332.116C334.124 140.508 335.05 141.302 335.05 143.41V165.462C335.05 167.576 334.2 168.472 332.042 168.472H298.148C296.302 168.472 295.883 167.576 295.883 165.918V139.169C295.883 137.223 296.358 136.336 298.529 136.336H312.742C315.245 136.336 314.975 138.624 314.975 140.508H314.97Z" fill="#FFE482" stroke="#F3D257" stroke-width="0.714801" stroke-miterlimit="10"/>
<path d="M185.136 140.508H202.283C204.291 140.508 205.218 141.302 205.218 143.41V165.462C205.218 167.576 204.367 168.472 202.208 168.472H168.313C166.468 168.472 166.049 167.576 166.049 165.918V139.169C166.049 137.223 166.525 136.336 168.696 136.336H182.909C185.411 136.336 185.142 138.624 185.142 140.508H185.136Z" fill="#FFD35A" stroke="#F3D257" stroke-width="0.714801" stroke-miterlimit="10"/>
<path d="M180.871 153.45C182.684 153.45 184.156 151.98 184.156 150.167C184.156 148.353 182.684 146.882 180.871 146.882C179.057 146.882 177.586 148.353 177.586 150.167C177.586 151.98 179.057 153.45 180.871 153.45Z" fill="#CCA200"/>
<path d="M190.776 153.45C192.59 153.45 194.061 151.98 194.061 150.167C194.061 148.353 192.59 146.882 190.776 146.882C188.962 146.882 187.493 148.353 187.493 150.167C187.493 151.98 188.962 153.45 190.776 153.45Z" fill="#CCA200"/>
<path d="M188.063 155.783C187.956 155.708 188.001 155.545 188.132 155.545C190.796 155.508 194.281 155.22 195.633 156.121C196.908 156.973 197.384 158.035 197.384 158.862C197.384 159.687 197.096 160.806 195.25 160.806H189.833C189.008 160.806 188.577 159.562 188.657 158.605C188.739 157.617 189.113 156.522 188.07 155.777L188.063 155.783Z" fill="#CCA200"/>
<path d="M178.514 155.478H183.58C185.815 155.478 186.734 156.954 186.897 158.293C187.028 159.4 186.865 160.808 185.013 160.808H176.568C174.497 160.808 174.316 158.706 174.685 157.624C175.068 156.51 176.118 155.478 178.507 155.478H178.514Z" fill="#CCA200"/>
<path d="M314.98 87.8152H332.126C334.134 87.8152 335.06 88.6088 335.06 90.7176V112.769C335.06 114.883 334.21 115.779 332.052 115.779H298.158C296.313 115.779 295.893 114.883 295.893 113.225V86.4764C295.893 84.5303 296.368 83.6428 298.539 83.6428H312.752C315.255 83.6428 314.985 85.9312 314.985 87.8152H314.98Z" fill="#FFE482" stroke="#F3D257" stroke-width="0.714801" stroke-miterlimit="10"/>
<path d="M310.715 100.757C312.529 100.757 313.999 99.2874 313.999 97.4738C313.999 95.6586 312.529 94.189 310.715 94.189C308.9 94.189 307.43 95.6586 307.43 97.4738C307.43 99.2874 308.9 100.757 310.715 100.757Z" fill="#CCA200"/>
<path d="M320.614 100.757C322.427 100.757 323.899 99.2874 323.899 97.4738C323.899 95.6586 322.427 94.189 320.614 94.189C318.8 94.189 317.329 95.6586 317.329 97.4738C317.329 99.2874 318.8 100.757 320.614 100.757Z" fill="#CCA200"/>
<path d="M317.906 103.091C317.8 103.017 317.844 102.854 317.975 102.854C320.641 102.816 324.125 102.529 325.476 103.43C326.753 104.28 327.227 105.344 327.227 106.169C327.227 106.995 326.94 108.115 325.095 108.115H319.678C318.851 108.115 318.419 106.871 318.502 105.913C318.582 104.956 318.958 103.829 317.913 103.086L317.906 103.091Z" fill="#CCA200"/>
<path d="M308.358 102.779H313.425C315.658 102.779 316.577 104.255 316.74 105.594C316.873 106.701 316.71 108.109 314.858 108.109H306.412C304.342 108.109 304.161 106.006 304.53 104.924C304.911 103.81 305.963 102.779 308.352 102.779H308.358Z" fill="#CCA200"/>
<path d="M249.881 140.508H267.028C269.037 140.508 269.961 141.302 269.961 143.41V165.462C269.961 167.576 269.11 168.472 266.953 168.472H233.059C231.213 168.472 230.794 167.576 230.794 165.918V139.169C230.794 137.223 231.27 136.336 233.44 136.336H247.653C250.156 136.336 249.888 138.624 249.888 140.508H249.881Z" fill="#FFD35A" stroke="#F3D257" stroke-width="0.714801" stroke-miterlimit="10"/>
<g clip-path="url(#clip0_4035_4366)">
<path d="M66.632 124.769H144.24C146.948 124.769 149.142 126.955 149.142 129.652V157.322H66.632V124.769Z" fill="#C0BDBD"/>
<path d="M66.632 124.769H15.1652C12.4582 124.769 10.2636 126.955 10.2636 129.652V157.322H66.632V124.769Z" fill="#B5B5B5"/>
<path d="M66.632 222.427H15.1652C12.4582 222.427 10.2636 220.242 10.2636 217.545V189.875H66.632V222.427Z" fill="#DFDCDC"/>
<path d="M66.632 222.427H144.24C146.948 222.427 149.142 220.242 149.142 217.545V189.875H66.632V222.427Z" fill="#EBEBEB"/>
<path d="M149.142 157.322H66.632V189.875H149.142V157.322Z" fill="#DEDEDE"/>
<path d="M66.632 157.322H10.2636V189.875H66.632V157.322Z" fill="#C2C2C2"/>
<path d="M53.561 143.487H2.91125C1.55771 143.487 0.460449 144.58 0.460449 145.929V201.268C0.460449 202.617 1.55771 203.71 2.91125 203.71H53.561C54.9146 203.71 56.0118 202.617 56.0118 201.268V145.929C56.0118 144.58 54.9146 143.487 53.561 143.487Z" fill="#212121"/>
<path d="M19.2395 193.13L33.036 163.089H14.9171V156.58H41.2787V161.436L27.3817 193.13H19.2395Z" fill="white"/>
<path d="M98.1476 185.806H79.9194V182.451L91.6636 165.678H80.2377V161.405H97.8289V164.743L86.1011 181.533H98.1476V185.806ZM104.453 185.806V161.405H109.646V185.806H104.453ZM123.407 172.888H125.115C126.712 172.888 127.908 172.576 128.701 171.953C129.494 171.319 129.89 170.401 129.89 169.199C129.89 167.987 129.555 167.091 128.885 166.512C128.226 165.934 127.188 165.645 125.769 165.645H123.407V172.888ZM135.134 169.016C135.134 171.642 134.307 173.65 132.655 175.041C131.013 176.432 128.673 177.127 125.635 177.127H123.407V185.806H118.213V161.405H126.037C129.008 161.405 131.264 162.045 132.806 163.325C134.358 164.593 135.134 166.49 135.134 169.016Z" fill="#353535"/>
</g>
<defs>
<linearGradient id="paint0_linear_4035_4366" x1="224.625" y1="-21.449" x2="224.625" y2="224.698" gradientUnits="userSpaceOnUse">
<stop stop-color="white" stop-opacity="0.5"/>
<stop offset="1" stop-color="#000C41" stop-opacity="0.5"/>
</linearGradient>
<linearGradient id="paint1_linear_4035_4366" x1="121.474" y1="-20.6672" x2="302.129" y2="230.88" gradientUnits="userSpaceOnUse">
<stop stop-color="#09CCDF"/>
<stop offset="1" stop-color="#004BDF"/>
</linearGradient>
<linearGradient id="paint2_linear_4035_4366" x1="224.811" y1="240.387" x2="224.811" y2="257.968" gradientUnits="userSpaceOnUse">
<stop stop-color="white" stop-opacity="0.5"/>
<stop offset="1" stop-color="#000C41" stop-opacity="0.5"/>
</linearGradient>
<clipPath id="clip0_4035_4366">
<rect width="148.682" height="97.6581" fill="white" transform="translate(0.460449 124.769)"/>
</clipPath>
</defs>
</svg>
