<svg width="226" height="201" viewBox="0 0 226 201" fill="none" xmlns="http://www.w3.org/2000/svg">
<path fill-rule="evenodd" clip-rule="evenodd" d="M115.268 130.879L14.6054 77.1412L2.63845 93.1145C-0.195159 96.886 0.574888 102.234 4.35807 105.071L100.344 176.965L118.78 142.447C121.003 138.283 119.429 133.116 115.265 130.893L115.268 130.879Z" fill="url(#paint0_linear_4030_2951)"/>
<path d="M221.962 102.652L88.4304 2.64511C84.6572 -0.180115 79.3088 0.588271 76.4836 4.35971L14.9343 86.5445C12.1074 90.3159 12.8758 95.6644 16.6489 98.4896L150.181 198.497C153.952 201.322 159.301 200.553 162.126 196.782L223.677 114.597C226.502 110.826 225.734 105.477 221.962 102.652Z" fill="url(#paint1_linear_4030_2951)"/>
<path d="M207.373 110.254L85.236 18.7811L31.2329 90.888L153.37 182.361L207.373 110.254Z" fill="url(#paint2_linear_4030_2951)"/>
<path fill-rule="evenodd" clip-rule="evenodd" d="M146.928 118.694C143.604 117.721 140.224 118.409 137.566 120.207C136.791 115.797 135.521 110.463 134.58 108.497C133.85 106.957 130.735 103.766 127.75 100.947C133.543 101.771 139.214 98.2933 140.905 92.5104C142.759 86.1737 139.125 79.5184 132.775 77.6612C126.425 75.8057 119.783 79.4412 117.926 85.7912C117.127 88.5208 117.394 91.2823 118.409 93.725C114.616 91.7034 110.012 89.9267 107.38 90.0291C106.16 90.0744 104.073 90.1482 101.86 90.2388C98.7799 88.9889 95.7349 87.7508 93.3123 86.7743C97.1089 85.8986 100.352 83.1069 101.526 79.0906C103.253 73.1851 99.8704 67.0062 93.9649 65.2799C88.0595 63.5535 81.8806 66.9357 80.1542 72.8412C79.1493 76.2754 79.9193 79.7868 81.8688 82.4761C75.7604 81.7614 71.1887 83.4559 69.3835 85.4087C67.4843 87.4555 61.6628 96.2667 61.8893 99.0684C62.0654 101.266 59.2737 108.148 58.0423 111.032L77.1948 125.378C80.1375 122.375 86.6603 115.527 89.1215 111.19C92.3393 105.506 96.5905 102.068 99.2547 102.727C99.805 102.862 100.572 102.991 101.407 103.115C99.3688 105.59 96.7298 109.525 95.0638 112.149C92.9365 115.525 82.9241 125.551 80.5602 127.903L106.158 147.084C108.329 144.701 112.918 137.407 116.49 132.161C117.703 134.018 118.399 136.501 117.147 139.957C115.518 144.47 113.21 149.615 112.275 151.662L132.938 167.132C135.223 164.408 139.657 158.784 140.809 154.843C142.091 150.458 142.311 144.433 142.019 140.338C147.486 141.225 152.889 137.977 154.482 132.53C156.209 126.624 152.825 120.446 146.919 118.717L146.928 118.694Z" fill="#5EC8DE"/>
<defs>
<linearGradient id="paint0_linear_4030_2951" x1="0.787961" y1="96.2819" x2="111.742" y2="155.503" gradientUnits="userSpaceOnUse">
<stop stop-color="#8E8F90" stop-opacity="0"/>
<stop offset="1" stop-color="#8E8F90" stop-opacity="0.8"/>
</linearGradient>
<linearGradient id="paint1_linear_4030_2951" x1="184.58" y1="51.8315" x2="53.8885" y2="149.102" gradientUnits="userSpaceOnUse">
<stop stop-color="#D8D8D7"/>
<stop offset="1" stop-color="#E8E7E7"/>
</linearGradient>
<linearGradient id="paint2_linear_4030_2951" x1="222.566" y1="29.416" x2="119.318" y2="101.899" gradientUnits="userSpaceOnUse">
<stop stop-color="#476BB2"/>
<stop offset="1" stop-color="#23BED0"/>
</linearGradient>
</defs>
</svg>
