<svg width="213" height="187" viewBox="0 0 213 187" fill="none" xmlns="http://www.w3.org/2000/svg">
<path d="M208.433 79.7516L61.2559 1.19727C57.097 -1.02231 51.928 0.549698 49.7084 4.707L1.36087 95.2886C-0.858704 99.4476 0.713278 104.617 4.87226 106.836L152.049 185.39C156.206 187.61 161.377 186.038 163.596 181.881L211.944 91.2991C214.162 87.1401 212.592 81.9711 208.433 79.7516Z" fill="url(#paint0_linear_4030_2784)"/>
<path d="M197.254 89.1332L59.6839 15.7059L16.0523 97.4545L153.623 170.882L197.254 89.1332Z" fill="#00BAB9"/>
<path fill-rule="evenodd" clip-rule="evenodd" d="M133.618 116.318C132.754 115.1 131.323 114.401 129.838 114.476L99.8158 115.929C98.1985 116.005 96.6802 115.186 95.8515 113.804L66.393 64.3537C65.5189 62.8908 63.8832 62.0637 62.1954 62.2399L33.1748 65.2211L15.9097 97.5736L153.473 171.006L161.545 155.88L133.635 116.31L133.618 116.318Z" fill="#005A66"/>
<path d="M107.344 99.5432C113.622 101.379 120.198 97.7782 122.034 91.5003C123.871 85.2241 120.269 78.6459 113.992 76.8105C107.715 74.9752 101.138 78.5754 99.3026 84.8533C97.4655 91.1295 101.068 97.7078 107.344 99.5432Z" fill="#A3DADF"/>
<defs>
<linearGradient id="paint0_linear_4030_2784" x1="179.511" y1="39.6465" x2="34.2586" y2="147.792" gradientUnits="userSpaceOnUse">
<stop stop-color="#D8D8D7"/>
<stop offset="1" stop-color="#E8E7E7"/>
</linearGradient>
</defs>
</svg>
