<svg width="221" height="209" viewBox="0 0 221 209" fill="none" xmlns="http://www.w3.org/2000/svg">
<path fill-rule="evenodd" clip-rule="evenodd" d="M88.9222 94.6856L30.8256 51.1698L2.59854 79.1787C-0.746771 82.5039 -0.770272 87.9027 2.55322 91.2615L59.3144 148.467L90.6385 106.654C93.4721 102.883 92.702 97.5343 88.9188 94.6973L88.9222 94.6856Z" fill="url(#paint0_linear_4030_3453)"/>
<path d="M218.04 121.837L100.53 3.41772C97.2099 0.0724091 91.8061 0.0523025 88.4608 3.37077L15.5787 75.6941C12.2334 79.0142 12.2116 84.4181 15.5317 87.7634L133.042 206.183C136.362 209.528 141.766 209.55 145.111 206.23L217.993 133.906C221.34 130.586 221.36 125.182 218.04 121.837Z" fill="url(#paint1_linear_4030_3453)"/>
<path d="M202.656 127.166L95.0826 18.7601L30.9245 82.425L138.499 190.83L202.656 127.166Z" fill="#5EC8DE"/>
<path fill-rule="evenodd" clip-rule="evenodd" d="M138.509 190.831L195.75 134.039L163.811 110.362L101.309 109.746L107.34 116.365L85.1239 137.025L138.509 190.831Z" fill="#0E84A0"/>
<path fill-rule="evenodd" clip-rule="evenodd" d="M97.4345 50.7722C100.486 41.3922 91.2708 32.9182 84.0483 29.7323L30.9579 82.415L53.0749 104.693C54.2878 104.257 55.5679 103.411 56.8614 101.925C62.6091 95.2912 60.6043 86.7384 60.6043 86.7384C64.2147 93.3334 77.6781 88.8892 82.6743 83.4971C92.2841 73.1508 83.1289 61.8113 83.1289 61.8113C83.1289 61.8113 94.0507 61.1956 97.4379 50.7604L97.4345 50.7722Z" fill="#A8DDE6"/>
<defs>
<linearGradient id="paint0_linear_4030_3453" x1="3.26793" y1="76.976" x2="83.619" y2="119.863" gradientUnits="userSpaceOnUse">
<stop stop-color="#8E8F90" stop-opacity="0"/>
<stop offset="1" stop-color="#8E8F90" stop-opacity="0.8"/>
</linearGradient>
<linearGradient id="paint1_linear_4030_3453" x1="173.85" y1="62.3431" x2="59.7203" y2="147.286" gradientUnits="userSpaceOnUse">
<stop stop-color="#D8D8D7"/>
<stop offset="1" stop-color="#E8E7E7"/>
</linearGradient>
</defs>
</svg>
