<svg width="112" height="48" viewBox="0 0 112 48" fill="none" xmlns="http://www.w3.org/2000/svg">
<path d="M8.48297 0.750088C10.9005 -0.0821913 13.6193 0.337912 15.881 1.45026C16.9432 1.90735 17.8758 2.80569 19.1018 2.75548C20.7981 2.74756 22.5842 2.7 24.1298 3.52435C24.8643 3.85726 25.3056 4.56536 25.7442 5.20741C23.3187 4.92734 20.8218 4.2668 18.4016 4.94319C17.2919 5.22854 16.2403 6.07139 16.1003 7.26829C15.7912 9.56432 16.9511 11.6965 17.9947 13.6544C19.0859 15.6994 20.806 17.401 21.4824 19.66C23.1707 24.408 24.1985 29.6764 22.7533 34.6225C21.1495 40.2424 16.7503 44.5544 11.997 47.688C14.9721 44.0735 17.8177 40.2318 19.4294 35.7904C20.3991 33.0188 20.9143 29.8984 19.905 27.066C18.0449 21.7209 14.7819 16.9465 13.3393 11.4455C12.8901 9.81533 12.8082 8.12171 12.6893 6.44394C11.3074 6.72929 9.89124 7.27886 9.03782 8.46519C8.14742 9.58018 8.04437 11.0545 7.80922 12.4073C6.20807 10.5234 4.78659 8.17455 5.06666 5.59845C5.14593 3.49793 6.45115 1.44233 8.48297 0.750088Z" fill="#055FE5"/>
<path d="M36.1305 10.9832C36.6907 10.3597 37.5546 10.1985 38.3182 9.96069C38.3922 15.9954 38.342 22.0327 38.3446 28.0674C38.3103 29.4307 38.5296 30.9421 39.5944 31.9065C40.5535 32.958 42.0542 33.0188 43.3753 33.1245C43.37 34.0677 43.3674 35.011 43.3621 35.9542C41.428 36.0335 39.4041 35.6662 37.8875 34.3795C36.3023 33.1271 35.2956 31.164 35.3247 29.1269C35.3062 23.9218 35.3352 18.7168 35.3088 13.5118C35.2877 12.6134 35.4779 11.6464 36.1305 10.9832Z" fill="#055FE5"/>
<path d="M3.95972 13.4958C7.81462 14.7535 11.0565 17.9135 12.1002 21.8741C13.1201 25.7607 12.7766 29.9459 11.511 33.7374C10.433 29.1718 8.19773 24.5956 4.23714 21.8768C2.64392 25.4886 2.97948 29.5839 3.83289 33.3385C4.90297 38.0996 6.87666 42.586 9.0353 46.9403C4.74444 43.6587 1.45759 38.9266 0.448288 33.571C-0.87279 26.7225 0.852538 19.6309 3.95972 13.4958Z" fill="#055FE5"/>
<path d="M49.2223 17.9637C49.9093 17.3824 50.871 17.3692 51.7139 17.1948C51.7562 22.4052 51.7139 27.6181 51.7377 32.8311C51.6795 33.6238 51.7747 34.6621 51.019 35.1615C50.3083 35.6186 49.439 35.6926 48.6305 35.859C48.5935 30.6143 48.6384 25.3697 48.6041 20.125C48.6173 19.3772 48.6041 18.5 49.2223 17.9637Z" fill="#055FE5"/>
<path d="M58.0498 18.1145C58.647 17.3931 59.6563 17.3746 60.5044 17.1897C60.5255 18.0325 60.5335 18.8754 60.544 19.7182C61.7964 18.7327 63.1333 17.7472 64.7319 17.4381C66.4889 17.1369 68.4203 17.2056 69.9713 18.1752C71.7177 19.2242 72.6636 21.2956 72.6319 23.2931C72.6557 26.4742 72.6293 29.658 72.6478 32.8392C72.6161 33.5922 72.7059 34.509 72.0823 35.0639C71.3901 35.6954 70.3887 35.6531 69.5247 35.809C69.4983 31.7242 69.5353 27.6421 69.5142 23.5573C69.5591 22.2283 68.8298 20.8517 67.5616 20.3497C65.3792 19.5016 62.6868 20.2546 61.2627 22.1147C60.7686 22.7462 60.6312 23.5626 60.6392 24.3473C60.6365 27.1744 60.6576 30.0068 60.6471 32.8366C60.6048 33.5103 60.6392 34.2607 60.2402 34.8446C59.5823 35.6452 58.4673 35.661 57.5293 35.8169C57.4897 30.6726 57.5267 25.5283 57.5056 20.3841C57.5505 19.6152 57.4897 18.7248 58.0498 18.1145Z" fill="#055FE5"/>
<path d="M77.5253 17.9928C78.1964 17.3429 79.1872 17.3481 80.0565 17.2372C80.0829 21.1132 80.0644 24.9919 80.0592 28.8706C80.0407 30.012 80.2785 31.2697 81.19 32.0491C82.0751 32.9422 83.42 33.0637 84.6116 32.9818C86.0701 32.8999 87.4625 32.1204 88.3185 30.942C89.1138 29.7927 88.9659 28.3316 88.9712 27.0079C88.9764 24.4503 88.9262 21.8953 88.9897 19.3403C88.9712 18.6772 89.3331 18.0272 89.9144 17.7048C90.5855 17.3614 91.357 17.3297 92.0915 17.2292C92.1127 22.252 92.0889 27.2774 92.1048 32.3028C92.0598 33.1958 92.0863 34.1945 91.5288 34.9476C90.8999 35.6002 89.9223 35.6372 89.0927 35.8459C89.0716 34.9872 89.0636 34.1285 89.0425 33.2671C87.7822 34.3848 86.3501 35.4443 84.6275 35.653C82.3816 36.0256 79.8134 35.4231 78.3418 33.5868C77.2638 32.271 76.8648 30.5299 76.8859 28.86C76.8991 25.9484 76.8912 23.0367 76.8886 20.1251C76.9123 19.3879 76.9071 18.5133 77.5253 17.9928Z" fill="#055FE5"/>
<path d="M96.0071 17.6545C97.1775 17.319 98.784 16.9094 99.6321 18.0825C101.083 19.9928 102.258 22.0986 103.653 24.0485C104.779 22.3628 105.897 20.6692 107.009 18.9756C107.44 18.3785 107.865 17.6757 108.602 17.4299C109.514 17.1261 110.502 17.3454 111.337 17.7787C109.485 20.4129 107.564 23.0022 105.754 25.6682C105.392 26.0354 105.812 26.4555 105.997 26.799C107.022 28.2311 108.082 29.6393 109.096 31.0793C110.082 32.4955 111.244 33.806 112 35.3702C110.838 35.6687 109.279 36.073 108.407 34.9633C106.721 32.7677 105.302 30.3791 103.661 28.1492C102.095 30.2735 100.665 32.4955 99.1724 34.67C98.7258 35.3649 97.9306 35.8352 97.093 35.7691C96.443 35.6978 95.8327 35.4415 95.2224 35.2275C96.6148 33.1904 98.1155 31.2273 99.5396 29.2113C100.25 28.1809 101.12 27.2561 101.725 26.1543C101.548 25.433 101.003 24.8782 100.607 24.2678C99.0746 22.0616 97.4338 19.9321 96.0071 17.6545Z" fill="#055FE5"/>
</svg>
