<svg viewBox="0 0 76 48" fill="none" xmlns="http://www.w3.org/2000/svg">
<path d="M71.9765 43.7778H31.2941V12.6667H71.9765C72.8402 12.6667 73.5412 13.3636 73.5412 14.2223V42.2223C73.5412 43.0809 72.8402 43.7778 71.9765 43.7778Z" fill="white"/>
<path d="M73.5412 11.1112H32.8588V3.33339C32.8588 2.47472 32.1578 1.77783 31.2941 1.77783H1.56471C0.700988 1.77783 0 2.47472 0 3.33339V43.7778C0 44.6365 0.700988 45.3334 1.56471 45.3334H73.5412C74.4049 45.3334 75.1059 44.6381 75.1059 43.7778V12.6667C75.1059 11.8065 74.4049 11.1112 73.5412 11.1112ZM71.9765 42.2223H32.8588V14.2223H71.9765V42.2223Z" fill="#100F14"/>
<path d="M17.2118 39.1112H10.9529C10.9529 29.7327 15.7096 20.5705 18.6716 15.7778H6.25882V9.55561H26.6V15.2552L25.9757 16.0858C25.8881 16.2025 17.2118 27.8816 17.2118 39.1112Z" fill="white"/>
<path d="M41.5883 33.3914H48.5059V36.0001H37.6234V34.1069L44.4705 23.0641H37.5529V20.4445H48.3776V22.2956L41.5883 33.3914Z" fill="#100F14"/>
<path d="M54.7647 20.4445H51.6353V35.9627H54.7647V20.4445Z" fill="#100F14"/>
<path d="M67.3903 21.8787C66.4312 20.9283 65.1246 20.4445 63.5036 20.4445H57.8941V35.9689H61.2191V30.5136H63.4363C65.1246 30.5136 66.464 30.0609 67.4075 29.1883C68.3667 28.3001 68.8471 27.1007 68.8471 25.5887C68.8471 24.0612 68.3667 22.8292 67.3903 21.8787ZM64.976 27.3185C64.6286 27.7089 64.1326 27.8956 63.5036 27.8956H61.2207V23.0641H63.5364C64.1326 23.0641 64.6114 23.2974 64.9588 23.7501C65.3233 24.2183 65.4876 24.8405 65.4876 25.6043C65.4876 26.3525 65.3233 26.9281 64.976 27.3185Z" fill="#100F14"/>
</svg>
