<svg width="144" height="38" viewBox="0 0 144 38" fill="none" xmlns="http://www.w3.org/2000/svg">
<g opacity="0.2" filter="url(#filter0_f_2012_2536)">
<path d="M3 34.4846H8.4052V20.5557C8.4052 17.8086 10.2284 15.8125 12.8335 15.8125C15.3513 15.8125 16.9145 17.3795 16.9145 19.9118V34.4846H22.1674V20.4266C22.1674 17.7014 23.9473 15.8125 26.5518 15.8125C29.2002 15.8125 30.6761 17.4004 30.6761 20.1903V34.4846H36.0813V18.8816C36.0813 14.3324 33.1073 11.3056 28.5706 11.3056C25.2493 11.3056 22.5147 13.066 21.4072 15.8768H21.2766C20.4303 12.9583 18.1075 11.3056 14.8518 11.3056C11.726 11.3056 9.29486 13.0445 8.29628 15.6845H8.18792V11.7353H3V34.4846ZM47.912 30.8145C45.5681 30.8145 44.0055 29.6343 44.0055 27.7669C44.0055 25.9648 45.5025 24.8055 48.1076 24.6335L53.4255 24.3115V26.0499C53.4255 28.797 50.9727 30.8145 47.912 30.8145ZM46.2838 34.8495C49.2362 34.8495 52.1235 33.3259 53.4477 30.8579H53.5561V34.4846H58.7657V18.8173C58.7657 14.2461 55.0537 11.2628 49.3451 11.2628C43.4842 11.2628 39.8161 14.3104 39.5772 18.5596H44.5912C44.9385 16.6713 46.5666 15.4477 49.1278 15.4477C51.7979 15.4477 53.4261 16.8213 53.4261 19.2036V20.8348L47.3479 21.1782C41.7477 21.5216 38.6003 23.9467 38.6003 27.9817C38.6003 32.0804 41.8338 34.8495 46.2838 34.8495ZM82.492 19.8475C82.123 15.062 78.3677 11.2628 72.2895 11.2628C65.6046 11.2628 61.263 15.834 61.263 23.1094C61.263 30.4925 65.604 34.9346 72.3334 34.9346C78.107 34.9346 82.0797 31.5864 82.5137 26.4999H77.4124C76.9134 29.0756 75.133 30.6206 72.3984 30.6206C68.9687 30.6206 66.7549 27.8734 66.7549 23.1089C66.7549 18.4305 68.9471 15.5972 72.3551 15.5972C75.2419 15.5972 76.9562 17.4212 77.3908 19.8469L82.492 19.8475ZM99.1849 3C90.0471 3 84.3163 9.15957 84.3163 19.0107C84.3163 28.8619 90.0466 35 99.1855 35C108.302 35 114.033 28.8619 114.033 19.0107C114.033 9.15957 108.303 3 99.1849 3ZM99.1849 7.72174C104.764 7.72174 108.324 12.1001 108.324 19.0107C108.324 25.8999 104.763 30.2783 99.1855 30.2783C93.5852 30.2783 90.0471 25.8999 90.0471 19.0107C90.0471 12.1001 93.5852 7.72174 99.1855 7.72174H99.1849ZM116.313 25.7714C116.552 31.4799 121.284 35 128.49 35C136.066 35 140.842 31.3084 140.842 25.428C140.842 20.8139 138.15 18.2168 131.789 16.779L128.186 15.9636C124.344 15.062 122.76 13.8599 122.76 11.7995C122.76 9.22441 125.148 7.50746 128.686 7.50746C132.267 7.50746 134.72 9.24583 134.981 12.1429H140.321C140.19 6.69212 135.632 3.00055 128.729 3.00055C121.913 3.00055 117.073 6.713 117.073 12.2072C117.073 16.6284 119.808 19.3755 125.581 20.6848L129.641 21.6298C133.592 22.5523 135.198 23.8401 135.198 26.0719C135.198 28.6476 132.571 30.4931 128.794 30.4931C124.974 30.4931 122.087 28.6262 121.74 25.7714H116.313Z" fill="#055FE5"/>
</g>
<defs>
<filter id="filter0_f_2012_2536" x="0" y="0" width="145" height="38" filterUnits="userSpaceOnUse" color-interpolation-filters="sRGB">
<feFlood flood-opacity="0" result="BackgroundImageFix"/>
<feBlend mode="normal" in="SourceGraphic" in2="BackgroundImageFix" result="shape"/>
<feGaussianBlur stdDeviation="1.5" result="effect1_foregroundBlur_2012_2536"/>
</filter>
</defs>
</svg>
