<svg width="225" height="54" viewBox="0 0 225 54" fill="none" xmlns="http://www.w3.org/2000/svg">
<g opacity="0.2" clip-path="url(#clip0_2012_2554)" filter="url(#filter0_f_2012_2554)">
<path d="M24.9 26.25H51.331V3L24.9 6.77416V26.25Z" fill="#055FE5"/>
<path d="M23.3897 26.25V6.75L3 9.67354V26.25H23.3897Z" fill="#055FE5"/>
<path d="M23.3897 27.75H3V44.4353L23.3897 47.25V27.75Z" fill="#055FE5"/>
<path d="M24.9 27.75V47.3214L51.331 51V27.75H24.9Z" fill="#055FE5"/>
<path d="M102.683 12.8066L94.6299 41.25H90.7169L84.8474 20.4481C84.6206 19.6557 84.4788 18.7217 84.4221 17.5613H84.337C84.2236 18.5519 84.0535 19.4858 83.7983 20.3915L77.9004 41.2217H74.0157L65.6793 12.7783H69.3371L75.4051 34.5991C75.6603 35.5613 75.8305 36.5236 75.9155 37.4575H76.0006C76.0573 36.6651 76.2558 35.7028 76.596 34.5991L82.9192 12.7783H86.1517L92.163 34.7406C92.3899 35.5613 92.56 36.4387 92.6451 37.3726H92.7301C92.7868 36.6934 92.9853 35.7877 93.2689 34.6557L99.0817 12.75H102.683V12.8066Z" fill="#055FE5"/>
<path d="M108.724 14.1015C108.724 14.6978 108.548 15.209 108.17 15.6349C107.793 16.0325 107.34 16.2313 106.836 16.2313C106.308 16.2313 105.855 16.0325 105.502 15.6349C105.15 15.2374 104.948 14.7262 104.948 14.1015C104.948 13.5335 105.125 13.0507 105.477 12.6248C105.829 12.1988 106.282 12 106.836 12C107.365 12 107.818 12.1988 108.196 12.6248C108.523 13.0223 108.724 13.5051 108.724 14.1015ZM108.221 41.25H105.326V20.8602H108.221V41.25Z" fill="#055FE5"/>
<path d="M130.624 42H127.418V30.3302C127.418 25.9932 125.857 23.8247 122.763 23.8247C121.174 23.8247 119.864 24.4239 118.805 25.6508C117.746 26.8777 117.216 28.4185 117.216 30.3302V42H114.01V21.5136H117.216V24.909H117.3C118.805 22.3125 120.979 21 123.85 21C126.053 21 127.725 21.7419 128.868 23.197C130.011 24.6522 130.596 26.7351 130.596 29.4457V42H130.624Z" fill="#055FE5"/>
<path d="M154.79 41.5164H151.384V38.046H151.295C149.726 40.6915 147.297 42 143.98 42C141.285 42 139.153 41.0613 137.554 39.2123C135.955 37.3633 135.155 34.8885 135.155 31.7879C135.155 28.4029 136.044 25.7005 137.791 23.6524C139.568 21.6043 141.907 20.5802 144.869 20.5802C147.771 20.5802 149.903 21.6896 151.236 23.88H151.325V11.25H154.73V41.5164H154.79ZM151.414 32.3V29.2847C151.414 27.6064 150.821 26.1841 149.666 25.0747C148.511 23.9653 147.09 23.3964 145.402 23.3964C143.358 23.3964 141.73 24.136 140.515 25.5867C139.301 27.0375 138.709 29.0571 138.709 31.6457C138.709 33.9783 139.272 35.8272 140.397 37.1926C141.522 38.5581 143.062 39.2408 144.987 39.2408C146.853 39.2408 148.393 38.5865 149.607 37.278C150.792 35.9695 151.414 34.3196 151.414 32.3Z" fill="#055FE5"/>
<path d="M178.2 31.4162C178.2 34.5997 177.276 37.1689 175.399 39.0957C173.521 41.0226 171.038 42 167.89 42C164.828 42 162.373 41.0505 160.554 39.1795C158.735 37.2806 157.81 34.8231 157.81 31.7234C157.81 28.4003 158.735 25.8032 160.612 23.8763C162.489 21.9495 165.059 21 168.352 21C171.442 21 173.839 21.9215 175.572 23.7926C177.334 25.6356 178.2 28.1769 178.2 31.4162ZM174.821 31.5279C174.821 29.0146 174.243 27.0878 173.088 25.7473C171.933 24.4069 170.287 23.7367 168.15 23.7367C166.012 23.7367 164.337 24.4348 163.095 25.8032C161.854 27.1715 161.247 29.1263 161.247 31.6117C161.247 34.0133 161.883 35.8843 163.124 37.2247C164.366 38.5652 166.041 39.2633 168.178 39.2633C170.345 39.2633 171.991 38.5931 173.146 37.2806C174.243 35.9122 174.821 34.0133 174.821 31.5279Z" fill="#055FE5"/>
<path d="M207.652 21.0282L201.5 41.25H198.096L193.861 26.7736C193.718 26.2667 193.604 25.6471 193.547 24.9148H193.461C193.432 25.3654 193.289 25.9851 193.032 26.7173L188.454 41.2218H185.164L178.955 21H182.417L186.651 36.2086C186.795 36.7437 186.88 37.3352 186.938 38.0111H187.109C187.138 37.5042 187.252 36.8846 187.481 36.1523L192.202 21H195.206L199.469 36.2368C199.612 36.7437 199.698 37.3633 199.755 38.0393H199.927C199.955 37.4197 200.07 36.8001 200.242 36.2368L204.419 21H207.652V21.0282Z" fill="#055FE5"/>
<path d="M222 36.1636C222 37.8949 221.301 39.3192 219.904 40.3803C218.507 41.4694 216.644 42 214.344 42C212.364 42 210.647 41.609 209.162 40.7992V37.3644C210.821 38.6489 212.626 39.2912 214.577 39.2912C217.226 39.2912 218.565 38.3697 218.565 36.4987C218.565 35.7447 218.303 35.1303 217.779 34.6556C217.255 34.1809 216.09 33.5386 214.256 32.7287C212.393 31.9747 211.113 31.1649 210.327 30.2992C209.57 29.4335 209.191 28.2886 209.191 26.8364C209.191 25.1888 209.89 23.7926 211.258 22.6755C212.655 21.5585 214.402 21 216.527 21C218.186 21 219.671 21.3072 220.981 21.9495V25.1888C219.613 24.2394 218.041 23.7646 216.236 23.7646C215.13 23.7646 214.256 24.016 213.587 24.5465C212.917 25.0771 212.568 25.7473 212.568 26.5572C212.568 27.4508 212.83 28.121 213.354 28.5957C213.878 29.0705 214.926 29.629 216.556 30.2992C218.536 31.109 219.933 31.9468 220.748 32.8404C221.592 33.7061 222 34.8231 222 36.1636Z" fill="#055FE5"/>
</g>
<defs>
<filter id="filter0_f_2012_2554" x="0" y="0" width="225" height="54" filterUnits="userSpaceOnUse" color-interpolation-filters="sRGB">
<feFlood flood-opacity="0" result="BackgroundImageFix"/>
<feBlend mode="normal" in="SourceGraphic" in2="BackgroundImageFix" result="shape"/>
<feGaussianBlur stdDeviation="1.5" result="effect1_foregroundBlur_2012_2554"/>
</filter>
<clipPath id="clip0_2012_2554">
<rect width="219" height="48" fill="white" transform="translate(3 3)"/>
</clipPath>
</defs>
</svg>
