<svg width="40" height="40" viewBox="0 0 40 40" xmlns="http://www.w3.org/2000/svg">
<path fill-rule="evenodd" clip-rule="evenodd" d="M4.35765 20C4.35765 19.1716 5.02922 18.5 5.85765 18.5L18.4998 18.5L18.4998 5.85786C18.4998 5.02944 19.1714 4.35786 19.9998 4.35786C20.8282 4.35786 21.4998 5.02944 21.4998 5.85786L21.4998 18.5H34.1419C34.9703 18.5 35.6419 19.1716 35.6419 20C35.6419 20.8284 34.9703 21.5 34.1419 21.5H21.4998L21.4998 34.1421C21.4998 34.9706 20.8282 35.6421 19.9998 35.6421C19.1714 35.6421 18.4998 34.9706 18.4998 34.1421L18.4998 21.5L5.85765 21.5C5.02922 21.5 4.35765 20.8284 4.35765 20Z" />
</svg>
